{
  "accessors": [
    {
      "bufferView": 0,
      "byteOffset": 0,
      "componentType": 5126,
      "normalized": false,
      "count": 24987,
      "type": "VEC3",
      "max": [
        2.275286912918091,
        2.8313798904418945,
        1.0040740966796875
      ],
      "min": [
        -2.282778739929199,
        -0.4396219253540039,
        -0.5312910079956055
      ]
    },
    {
      "bufferView": 1,
      "byteOffset": 0,
      "componentType": 5126,
      "normalized": false,
      "count": 24987,
      "type": "VEC3"
    },
    {
      "bufferView": 2,
      "byteOffset": 0,
      "componentType": 5126,
      "normalized": false,
      "count": 24987,
      "type": "VEC2"
    },
    {
      "bufferView": 3,
      "byteOffset": 0,
      "componentType": 5123,
      "normalized": false,
      "count": 38139,
      "type": "SCALAR"
    },
    {
      "bufferView": 4,
      "byteOffset": 0,
      "componentType": 5126,
      "normalized": false,
      "count": 28548,
      "type": "VEC3",
      "max": [
        1.6852071285247803,
        0.5331449508666992,
        0.0130615234375
      ],
      "min": [
        -1.7521942853927612,
        -6.0209550857543945,
        -1.223978042602539
      ]
    },
    {
      "bufferView": 5,
      "byteOffset": 0,
      "componentType": 5126,
      "normalized": false,
      "count": 28548,
      "type": "VEC3"
    },
    {
      "bufferView": 6,
      "byteOffset": 0,
      "componentType": 5126,
      "normalized": false,
      "count": 28548,
      "type": "VEC2"
    },
    {
      "bufferView": 7,
      "byteOffset": 0,
      "componentType": 5123,
      "normalized": false,
      "count": 43644,
      "type": "SCALAR"
    },
    {
      "bufferView": 8,
      "byteOffset": 0,
      "componentType": 5126,
      "normalized": false,
      "count": 1820188,
      "type": "VEC3",
      "max": [
        1.7225806713104248,
        0.71099853515625,
        0.7397737503051758
      ],
      "min": [
        -1.7300734519958496,
        -1.1937918663024902,
        -1.225820541381836
      ]
    },
    {
      "bufferView": 9,
      "byteOffset": 0,
      "componentType": 5126,
      "normalized": false,
      "count": 1820188,
      "type": "VEC3"
    },
    {
      "bufferView": 10,
      "byteOffset": 0,
      "componentType": 5126,
      "normalized": false,
      "count": 1820188,
      "type": "VEC2"
    },
    {
      "bufferView": 11,
      "byteOffset": 0,
      "componentType": 5125,
      "normalized": false,
      "count": 1832400,
      "type": "SCALAR"
    },
    {
      "bufferView": 12,
      "byteOffset": 0,
      "componentType": 5126,
      "normalized": false,
      "count": 17124,
      "type": "VEC3",
      "max": [
        1.9309842586517334,
        0.6875576972961426,
        0.7806062698364258
      ],
      "min": [
        -1.9160568714141846,
        0.45175743103027344,
        0.15354537963867188
      ]
    },
    {
      "bufferView": 13,
      "byteOffset": 0,
      "componentType": 5126,
      "normalized": false,
      "count": 17124,
      "type": "VEC3"
    },
    {
      "bufferView": 14,
      "byteOffset": 0,
      "componentType": 5126,
      "normalized": false,
      "count": 17124,
      "type": "VEC2"
    },
    {
      "bufferView": 15,
      "byteOffset": 0,
      "componentType": 5123,
      "normalized": false,
      "count": 17124,
      "type": "SCALAR"
    }
  ],
  "asset": {
    "generator": "Khronos glTF Blender I/O v1.7.33",
    "version": "2.0"
  },
  "bufferViews": [
    {
      "buffer": 0,
      "byteOffset": 0,
      "byteLength": 299844
    },
    {
      "buffer": 0,
      "byteOffset": 299844,
      "byteLength": 299844
    },
    {
      "buffer": 0,
      "byteOffset": 599688,
      "byteLength": 199896
    },
    {
      "buffer": 0,
      "byteOffset": 799584,
      "byteLength": 76278
    },
    {
      "buffer": 0,
      "byteOffset": 875864,
      "byteLength": 342576
    },
    {
      "buffer": 0,
      "byteOffset": 1218440,
      "byteLength": 342576
    },
    {
      "buffer": 0,
      "byteOffset": 1561016,
      "byteLength": 228384
    },
    {
      "buffer": 0,
      "byteOffset": 1789400,
      "byteLength": 87288
    },
    {
      "buffer": 0,
      "byteOffset": 1876688,
      "byteLength": 21842256
    },
    {
      "buffer": 0,
      "byteOffset": 23718944,
      "byteLength": 21842256
    },
    {
      "buffer": 0,
      "byteOffset": 45561200,
      "byteLength": 14561504
    },
    {
      "buffer": 0,
      "byteOffset": 60122704,
      "byteLength": 7329600
    },
    {
      "buffer": 0,
      "byteOffset": 67452304,
      "byteLength": 205488
    },
    {
      "buffer": 0,
      "byteOffset": 67657792,
      "byteLength": 205488
    },
    {
      "buffer": 0,
      "byteOffset": 67863280,
      "byteLength": 136992
    },
    {
      "buffer": 0,
      "byteOffset": 68000272,
      "byteLength": 34248
    }
  ],
  "buffers": [
    {
      "uri": "agitator.bin",
      "byteLength": 68034520
    }
  ],
  "materials": [
    {
      "pbrMetallicRoughness": {
        "baseColorFactor": [
          0.002702391939237714,
          0.14125528931617737,
          0.10332946479320526,
          1
        ],
        "metallicFactor": 0,
        "roughnessFactor": 0.5
      },
      "emissiveFactor": [
        0.0,
        0.0,
        0.0
      ],
      "alphaMode": "OPAQUE",
      "alphaCutoff": 0.5,
      "doubleSided": true,
      "name": "agitator"
    },
    {
      "pbrMetallicRoughness": {
        "baseColorFactor": [
          0.8000000715255737,
          0.003154630772769451,
          0,
          1
        ],
        "metallicFactor": 0,
        "roughnessFactor": 0.5
      },
      "emissiveFactor": [
        0.0,
        0.0,
        0.0
      ],
      "alphaMode": "OPAQUE",
      "alphaCutoff": 0.5,
      "doubleSided": true,
      "name": "redMat.001"
    },
    {
      "pbrMetallicRoughness": {
        "baseColorFactor": [
          0.26973575353622437,
          0.26973575353622437,
          0.26973575353622437,
          1
        ],
        "metallicFactor": 1.0,
        "roughnessFactor": 0.3623853325843811
      },
      "emissiveFactor": [
        0.0,
        0.0,
        0.0
      ],
      "alphaMode": "OPAQUE",
      "alphaCutoff": 0.5,
      "doubleSided": true,
      "name": "viseMateriel.001"
    },
    {
      "pbrMetallicRoughness": {
        "baseColorFactor": [
          0.01834110915660858,
          0.01834110915660858,
          0.01834110915660858,
          1
        ],
        "metallicFactor": 0,
        "roughnessFactor": 0.5
      },
      "emissiveFactor": [
        0.0,
        0.0,
        0.0
      ],
      "alphaMode": "OPAQUE",
      "alphaCutoff": 0.5,
      "doubleSided": true,
      "name": "smalVan"
    }
  ],
  "meshes": [
    {
      "primitives": [
        {
          "attributes": {
            "POSITION": 0,
            "NORMAL": 1,
            "TEXCOORD_0": 2
          },
          "indices": 3,
          "mode": 4,
          "material": 0
        },
        {
          "attributes": {
            "POSITION": 4,
            "NORMAL": 5,
            "TEXCOORD_0": 6
          },
          "indices": 7,
          "mode": 4,
          "material": 1
        },
        {
          "attributes": {
            "POSITION": 8,
            "NORMAL": 9,
            "TEXCOORD_0": 10
          },
          "indices": 11,
          "mode": 4,
          "material": 2
        },
        {
          "attributes": {
            "POSITION": 12,
            "NORMAL": 13,
            "TEXCOORD_0": 14
          },
          "indices": 15,
          "mode": 4,
          "material": 3
        }
      ],
      "name": "Plane.005"
    }
  ],
  "nodes": [
    {
      "mesh": 0,
      "rotation": [
        0,
        1,
        0,
        -1.6292068494294654e-07
      ],
      "scale": [
        0.4073656499385834,
        0.3259229063987732,
        0.8679125905036926
      ],
      "name": "Plane.002"
    }
  ],
  "scene": 0,
  "scenes": [
    {
      "name": "Scene",
      "nodes": [
        0
      ]
    }
  ]
}