{"accessors" : [{"bufferView" : 0, "byteOffset" : 0, "componentType" : 5123, "count" : 1722, "type" : "SCALAR", "max" : [1432], "min" : [0]}, {"bufferView" : 1, "byteOffset" : 0, "componentType" : 5126, "count" : 1433, "type" : "VEC3", "max" : [2.8370602130889893, 23.715871810913086, 1.0000001192092896], "min" : [-0.9483480453491211, -68.50627899169922, -4.616902828216553], "name" : "POSITION"}, {"bufferView" : 1, "byteOffset" : 12, "componentType" : 5126, "count" : 1433, "type" : "VEC3", "max" : [1.0000044107437134, 1.0000044107437134, 1.0000044107437134], "min" : [-1.0000044107437134, -1.0000044107437134, -1.0000044107437134], "name" : "NORMAL"}, {"bufferView" : 1, "byteOffset" : 24, "componentType" : 5126, "count" : 1433, "type" : "VEC2", "max" : [0.8750000596046448, 1], "min" : [0.125, 0], "name" : "TEXCOORD_0"}], "asset" : {"generator" : "Aspose.3D 22.10", "version" : "2.0"}, "buffers" : [{"uri" : "data:application/octet-stream;base64,", "byteLength" : 58556}], "bufferViews" : [{"buffer" : 0, "byteOffset" : 0, "byteLength" : 3444, "target" : 34963}, {"buffer" : 0, "byteOffset" : 3448, "byteLength" : 55104, "byteStride" : 32, "target" : 34962}], "meshes" : [{"primitives" : [{"attributes" : {"POSITION" : 1, "NORMAL" : 2, "TEXCOORD_0" : 3}, "indices" : 0, "mode" : 4}]}], "nodes" : [{"matrix" : [-2.687177129701013E-07, 0, -2.000000268717713, 0, 0, 0.07945715636014938, 0, 0, 3.0000004030765695, 0, -4.030765694551519E-07, 0, 5.42767333984375, 5.51940393447876, 4.2905120849609375, 1], "mesh" : 0, "name" : "Cube.3416"}], "scene" : 0, "scenes" : [{"nodes" : [0]}]}