{"accessors" : [{"bufferView" : 0, "byteOffset" : 0, "componentType" : 5125, "count" : 75336, "type" : "SCALAR", "max" : [73568], "min" : [0]}, {"bufferView" : 1, "byteOffset" : 0, "componentType" : 5126, "count" : 73569, "type" : "VEC3", "max" : [1.5654628276824951, 0.9497778415679932, 1.6769752502441406], "min" : [-1.1330833435058594, -1.2807695865631104, -3.509002685546875], "name" : "POSITION"}, {"bufferView" : 1, "byteOffset" : 12, "componentType" : 5126, "count" : 73569, "type" : "VEC3", "max" : [1.0000044107437134, 1.0000044107437134, 1.0000044107437134], "min" : [-1.0000044107437134, -1.0000044107437134, -1.0000044107437134], "name" : "NORMAL"}], "asset" : {"generator" : "Aspose.3D 23.2", "version" : "2.0"}, "buffers" : [{"uri" : "data:application/octet-stream;base64,", "byteLength" : 2109416}], "bufferViews" : [{"buffer" : 0, "byteOffset" : 0, "byteLength" : 301344, "target" : 34963}, {"buffer" : 0, "byteOffset" : 301348, "byteLength" : 1808064, "byteStride" : 24, "target" : 34962}], "materials" : [{"name" : "desilterMat", "pbrMetallicRoughness" : {"baseColorFactor" : [0, 0.06427585333585739, 0.2165197879076004, 1], "metallicFactor" : 0, "roughnessFactor" : 0.5}, "emissiveFactor" : [0, 0, 0], "alphaMode" : "OPAQUE", "doubleSided" : true}], "meshes" : [{"primitives" : [{"attributes" : {"POSITION" : 1, "NORMAL" : 2}, "indices" : 0, "material" : 0, "mode" : 4}]}], "nodes" : [{"matrix" : [-1, 0, 0, 0, 0, 1, 0, 0, 0, 0, 1, 0, -0.05980661138892174, 0, 0, 1], "mesh" : 0, "name" : "3D_WMP10"}], "scene" : 0, "scenes" : [{"nodes" : [0]}]}