{
  "accessors": [
    {
      "bufferView": 0,
      "byteOffset": 0,
      "componentType": 5126,
      "normalized": false,
      "count": 66866,
      "type": "VEC3",
      "max": [
        1.5654628276824951,
        0.9497778415679932,
        1.6769752502441406
      ],
      "min": [
        -1.1330833435058594,
        -1.2807695865631104,
        -3.509002685546875
      ]
    },
    {
      "bufferView": 1,
      "byteOffset": 0,
      "componentType": 5126,
      "normalized": false,
      "count": 66866,
      "type": "VEC3"
    },
    {
      "bufferView": 2,
      "byteOffset": 0,
      "componentType": 5125,
      "normalized": false,
      "count": 75336,
      "type": "SCALAR"
    }
  ],
  "asset": {
    "generator": "Khronos glTF Blender I/O v1.7.33",
    "version": "2.0"
  },
  "bufferViews": [
    {
      "buffer": 0,
      "byteOffset": 0,
      "byteLength": 802392
    },
    {
      "buffer": 0,
      "byteOffset": 802392,
      "byteLength": 802392
    },
    {
      "buffer": 0,
      "byteOffset": 1604784,
      "byteLength": 301344
    }
  ],
  "buffers": [
    {
      "uri": "MudPump.bin",
      "byteLength": 1906128
    }
  ],
  "materials": [
    {
      "pbrMetallicRoughness": {
        "baseColorFactor": [
          0,
          0.06427585333585739,
          0.2165197879076004,
          1
        ],
        "metallicFactor": 0,
        "roughnessFactor": 0.5
      },
      "emissiveFactor": [
        0.0,
        0.0,
        0.0
      ],
      "alphaMode": "OPAQUE",
      "alphaCutoff": 0.5,
      "doubleSided": true,
      "name": "desilterMat"
    }
  ],
  "meshes": [
    {
      "primitives": [
        {
          "attributes": {
            "POSITION": 0,
            "NORMAL": 1
          },
          "indices": 2,
          "mode": 4,
          "material": 0
        }
      ],
      "name": "3D_WMP10"
    }
  ],
  "nodes": [
    {
      "mesh": 0,
      "translation": [
        -0.05980661138892174,
        0,
        0
      ],
      "scale": [
        -1,
        1,
        1
      ],
      "name": "3D_WMP10"
    }
  ],
  "scene": 0,
  "scenes": [
    {
      "name": "Scene",
      "nodes": [
        0
      ]
    }
  ]
}